<?xml version="1.0" standalone="no"?>
<!DOCTYPE svg PUBLIC "-//W3C//DTD SVG 20010904//EN"
 "http://www.w3.org/TR/2001/REC-SVG-20010904/DTD/svg10.dtd">
<svg version="1.0" xmlns="http://www.w3.org/2000/svg"
 width="349.000000pt" height="349.000000pt" viewBox="0 0 349.000000 349.000000"
 preserveAspectRatio="xMidYMid meet">

<g transform="translate(0.000000,349.000000) scale(0.100000,-0.100000)"
fill="#000000" stroke="none">
<path d="M1492 2295 c-123 -38 -192 -136 -192 -269 0 -60 25 -131 63 -181 14
-18 13 -22 -9 -48 -13 -16 -24 -33 -24 -39 0 -16 66 -78 84 -78 9 0 16 -8 16
-19 0 -21 53 -71 76 -71 8 0 14 -9 14 -19 0 -21 53 -71 76 -71 8 0 14 -8 14
-17 0 -24 50 -73 75 -73 26 0 125 99 125 125 0 24 -48 75 -72 75 -10 0 -18 7
-18 17 0 23 -49 73 -72 73 -11 0 -18 7 -18 19 0 10 -17 33 -37 50 -46 39 -45
38 -84 84 -34 41 -53 46 -80 21 -26 -24 -43 -13 -73 47 -82 164 36 353 220
350 61 0 128 -26 159 -60 l20 -23 -40 -36 c-122 -109 -155 -142 -155 -152 0
-6 12 -15 27 -21 30 -11 140 7 235 40 l55 19 111 -122 110 -121 -36 -38 -37
-38 -35 38 c-19 21 -56 62 -82 91 -47 53 -73 66 -66 35 2 -10 10 -17 16 -15 7
1 12 -6 12 -15 0 -10 35 -56 78 -101 l77 -84 92 94 c80 82 93 101 108 152 59
202 -72 377 -272 364 -63 -4 -115 -21 -154 -49 -13 -10 -24 -6 -56 20 -70 56
-164 73 -251 46z m561 -61 c64 -22 131 -96 147 -164 20 -83 -6 -186 -58 -233
-19 -18 -22 -15 -133 108 -63 69 -120 125 -129 125 -8 0 -49 -11 -91 -25 -70
-22 -191 -44 -179 -33 86 81 221 198 239 208 63 33 134 38 204 14z m-568 -404
c19 -21 18 -22 -28 -67 -45 -46 -46 -47 -67 -28 -11 10 -20 21 -20 25 0 8 81
90 90 90 4 0 15 -9 25 -20z m87 -87 c25 -23 23 -32 -19 -75 -42 -44 -53 -46
-78 -18 -18 20 -18 21 25 65 24 25 46 45 49 45 2 0 13 -7 23 -17z m90 -90 c26
-23 23 -34 -25 -81 l-43 -42 -24 25 -24 25 44 45 c24 25 46 45 49 45 2 0 13
-7 23 -17z m108 -103 c7 -14 0 -27 -37 -64 l-47 -46 -23 22 -23 22 46 47 c47
48 66 52 84 19z"/>
<path d="M1730 1796 c0 -16 176 -226 190 -226 28 0 11 32 -71 127 -91 106
-119 130 -119 99z"/>
</g>
</svg>
