<?xml version="1.0" standalone="no"?>
<!DOCTYPE svg PUBLIC "-//W3C//DTD SVG 20010904//EN"
 "http://www.w3.org/TR/2001/REC-SVG-20010904/DTD/svg10.dtd">
<svg version="1.0" xmlns="http://www.w3.org/2000/svg"
 width="132.000000pt" height="125.000000pt" viewBox="0 0 132.000000 125.000000"
 preserveAspectRatio="xMidYMid meet">

<g transform="translate(0.000000,125.000000) scale(0.100000,-0.100000)"
fill="#000000" stroke="none">
<path d="M274 1191 c-72 -26 -130 -67 -167 -120 -44 -61 -55 -88 -67 -167 -14
-88 -1 -159 49 -258 l40 -79 -32 -44 -32 -45 55 -49 c30 -27 61 -56 68 -63 25
-26 104 -104 118 -118 8 -7 30 -32 50 -56 20 -23 46 -45 58 -48 13 -3 30 -22
42 -47 23 -47 73 -82 105 -72 28 9 138 123 145 151 8 30 -37 89 -77 103 -16 5
-32 18 -36 28 -13 36 -55 82 -84 92 -16 5 -33 19 -37 30 -13 34 -201 221 -222
221 -12 0 -35 -7 -51 -16 -28 -14 -32 -14 -49 1 -10 9 -31 44 -46 78 -59 128
-29 276 75 369 61 55 126 78 218 78 89 0 167 -27 210 -72 l30 -33 -129 -119
c-71 -65 -127 -123 -125 -130 2 -6 16 -17 31 -24 24 -12 43 -11 127 3 55 9
131 27 171 41 39 13 77 24 84 24 12 0 294 -306 294 -319 0 -4 -21 -28 -47 -53
l-48 -47 -93 105 c-89 100 -137 142 -148 132 -9 -9 8 -38 22 -38 8 0 14 -7 14
-15 0 -15 126 -170 180 -220 l32 -30 109 115 c147 154 164 189 164 335 0 102
-2 114 -29 168 -33 64 -92 124 -158 159 -38 20 -57 23 -164 23 -117 0 -123 -1
-184 -32 l-63 -33 -59 40 c-33 22 -83 47 -111 55 -68 20 -170 19 -233 -4z
m792 -89 c50 -26 116 -95 143 -149 29 -57 37 -140 21 -214 -14 -65 -64 -152
-90 -157 -19 -3 -55 31 -178 166 -52 56 -108 113 -126 127 l-32 24 -124 -35
c-69 -19 -150 -37 -180 -40 l-55 -6 79 73 c108 100 225 198 259 215 67 35 211
33 283 -4z m-776 -551 c0 -20 -90 -111 -109 -111 -8 0 -25 10 -38 22 l-24 22
63 63 62 63 23 -22 c13 -12 23 -28 23 -37z m121 -113 c8 -14 1 -28 -33 -64
-58 -63 -70 -68 -102 -43 -14 11 -26 25 -26 30 0 6 25 37 57 70 54 57 57 59
76 42 10 -10 23 -26 28 -35z m120 -121 c8 -14 -1 -29 -47 -77 l-58 -61 -33 33
-33 32 62 63 c59 60 63 62 81 45 10 -9 23 -25 28 -35z m117 -99 c21 -21 13
-42 -43 -103 l-54 -60 -33 33 -33 33 57 54 c56 55 83 66 106 43z"/>
<path d="M610 536 c0 -26 219 -294 248 -304 21 -7 13 28 -17 71 -40 58 -210
247 -221 247 -6 0 -10 -6 -10 -14z"/>
</g>
</svg>
